<svg width="256" height="256" viewBox="0 0 256 256" fill="none" xmlns="http://www.w3.org/2000/svg">
<path d="M164.326 235.097C153.072 241.784 141.997 248.288 131.008 254.933C128.82 256.256 127.094 256.407 124.826 255.057C90.5532 234.665 56.2417 214.338 21.9081 194.048C19.8127 192.81 18.9965 191.308 19 188.876C19.058 148.377 19.0488 107.878 19.0204 67.3786C19.0188 65.0996 19.4209 63.3615 21.6591 62.054C36.1534 53.587 50.5885 45.0182 64.9968 36.4058C66.8423 35.3027 68.3329 35.0845 70.2664 36.2377C88.5513 47.1438 106.86 58.0109 125.225 68.7813C127.607 70.178 128.311 71.8836 128.295 74.5225C128.198 90.7217 128.316 106.922 128.197 123.121C128.174 126.284 129.111 128.259 131.955 129.911C145.98 138.062 159.863 146.455 173.846 154.677C175.64 155.732 176.313 156.982 176.308 159.013C176.261 181.062 176.261 203.112 176.317 225.162C176.322 227.2 175.688 228.537 173.88 229.526C170.718 231.255 167.644 233.143 164.326 235.097ZM127.296 189.873C127.781 186.563 126.39 184.56 123.442 182.858C109.693 174.922 96.1027 166.713 82.3914 158.712C80.082 157.364 79.0904 155.81 79.1099 153.075C79.2272 136.66 79.1334 120.243 79.2201 103.827C79.2346 101.074 78.4309 99.2083 75.9566 97.758C63.0383 90.1862 50.2081 82.465 37.3193 74.8428C33.2937 72.4622 32.19 73.1211 32.1877 77.8397C32.1716 112.359 32.2032 146.878 32.1245 181.398C32.1188 183.896 33.0683 185.253 35.1246 186.469C64.2012 203.659 93.2383 220.916 122.291 238.147C126.544 240.669 127.276 240.267 127.283 235.379C127.302 220.424 127.29 205.47 127.296 189.873Z" fill="black"/>
<path d="M91.3412 35.6848C87.3275 33.2634 83.5296 30.9628 79.4203 28.4737C82.3273 25.6085 85.4586 24.2687 88.3021 22.5629C100.28 15.3775 112.366 8.37256 124.329 1.16291C126.732 -0.285061 128.584 -0.445955 131.089 1.0493C160.008 18.3115 188.993 35.4647 217.968 52.6349C223.2 55.7351 228.433 58.8354 233.728 61.8249C235.716 62.9471 236.529 64.3578 236.525 66.691C236.465 107.524 236.476 148.357 236.505 189.19C236.507 191.124 236.148 192.567 234.279 193.663C219.511 202.323 204.798 211.075 190.062 219.788C189.594 220.065 189.053 220.219 188.579 220.416C187.134 219.34 187.558 217.891 187.557 216.614C187.53 177.918 187.395 139.222 187.662 100.529C187.702 94.7126 185.901 91.5398 180.857 88.6052C150.966 71.2178 121.299 53.4474 91.3412 35.6848Z" fill="black"/>
</svg>
